<svg width="25" height="25" viewBox="0 0 25 25" fill="none" xmlns="http://www.w3.org/2000/svg">
<path d="M15 13.0625V15.6875C15 17.875 14.125 18.75 11.9375 18.75H9.3125C7.125 18.75 6.25 17.875 6.25 15.6875V13.0625C6.25 10.875 7.125 10 9.3125 10H11.9375C14.125 10 15 10.875 15 13.0625Z" stroke="#8D9EB7" stroke-width="1.5" stroke-linecap="round" stroke-linejoin="round"/>
<path d="M18.75 9.3125V11.9375C18.75 14.125 17.875 15 15.6875 15H15V13.0625C15 10.875 14.125 10 11.9375 10H10V9.3125C10 7.125 10.875 6.25 13.0625 6.25H15.6875C17.875 6.25 18.75 7.125 18.75 9.3125Z" stroke="#8D9EB7" stroke-width="1.5" stroke-linecap="round" stroke-linejoin="round"/>
</svg>
