<svg width="15" height="11" viewBox="0 0 15 11" fill="none" xmlns="http://www.w3.org/2000/svg">
<path d="M11.9199 0C13.3005 0.000189982 14.4199 1.11941 14.4199 2.5V6.42969C14.4198 7.81022 13.3004 8.9295 11.9199 8.92969H2.91211C2.77056 8.92969 2.64345 9.01785 2.59375 9.15039C2.07007 10.5467 0.000124456 10.1709 0 8.67969V2.4668C0 1.10468 1.10468 0 2.4668 0H11.9199ZM2.4668 1C1.65696 1 1 1.65696 1 2.4668V8.67969C1.00012 9.05763 1.5245 9.15277 1.65723 8.79883C1.85336 8.27612 2.3538 7.92969 2.91211 7.92969H11.9199C12.7481 7.9295 13.4198 7.25794 13.4199 6.42969V2.5C13.4199 1.67169 12.7482 1.00019 11.9199 1H2.4668Z" fill="white"/>
</svg>
